<svg xmlns="http://www.w3.org/2000/svg" width="70" height="70" fill="none"><path fill="#563D7C" d="M0 60.974A9.026 9.026 0 0 0 9.026 70h51.948A9.026 9.026 0 0 0 70 60.974V9.026A9.026 9.026 0 0 0 60.974 0H9.026A9.026 9.026 0 0 0 0 9.026v51.948Z"/><path fill="#fff" d="M29.028 30.963v-9.912h8.725c.831 0 1.633.069 2.404.207.772.139 1.455.386 2.048.742a3.958 3.958 0 0 1 1.425 1.484c.356.633.534 1.445.534 2.434 0 1.78-.534 3.067-1.603 3.858-1.068.792-2.433 1.188-4.096 1.188h-9.437Zm-9.32-17.154V56.19h20.538c1.9 0 3.75-.237 5.55-.712 1.801-.475 3.404-1.207 4.809-2.196 1.405-.99 2.523-2.266 3.354-3.829.83-1.563 1.246-3.413 1.246-5.55 0-2.652-.643-4.917-1.929-6.797s-3.235-3.195-5.847-3.947c1.9-.91 3.334-2.078 4.304-3.502.97-1.425 1.454-3.206 1.454-5.343 0-1.978-.327-3.64-.98-4.986-.653-1.345-1.573-2.424-2.76-3.235-1.187-.811-2.611-1.395-4.274-1.751-1.662-.356-3.502-.534-5.52-.534H19.708Zm9.32 35.14V37.315h10.15c2.018 0 3.64.465 4.868 1.395 1.226.93 1.84 2.483 1.84 4.66 0 1.108-.188 2.018-.564 2.73a4.48 4.48 0 0 1-1.514 1.692c-.633.416-1.365.712-2.196.89-.831.178-1.702.267-2.612.267h-9.972Z"/></svg>