<svg xmlns="http://www.w3.org/2000/svg" width="70" height="70" fill="none"><path fill="#2396ED" d="M68.546 29.02c-1.576-1.093-5.187-1.503-8.01-.956-.329-2.734-1.84-5.126-4.466-7.244l-1.51-1.094-1.05 1.572c-1.313 2.05-1.97 4.92-1.773 7.654.066.957.394 2.665 1.379 4.169-.92.547-2.824 1.23-5.319 1.23H.325l-.13.547c-.46 2.733-.46 11.275 4.924 17.836 4.07 4.988 10.111 7.517 18.056 7.517 17.203 0 29.94-8.27 35.916-23.235 2.364.068 7.42 0 9.98-5.126.066-.136.197-.41.657-1.435l.262-.546-1.444-.889ZM38.276 9.75h-7.222v6.833h7.223V9.749Zm0 8.2h-7.222v6.834h7.223V17.95Zm-8.535 0h-7.223v6.834h7.223V17.95Zm-8.536 0h-7.222v6.834h7.222V17.95Zm-8.536 8.2H5.447v6.834h7.222V26.15Zm8.536 0h-7.222v6.834h7.222V26.15Zm8.536 0h-7.223v6.834h7.223V26.15Zm8.536 0h-7.223v6.834h7.223V26.15Zm8.535 0H39.59v6.834h7.222V26.15Z"/></svg>