<svg xmlns="http://www.w3.org/2000/svg" width="47" height="70" fill="none"><path fill="#0ACF83" d="M11.667 70c6.44 0 11.666-5.227 11.666-11.667V46.667H11.667C5.227 46.667 0 51.893 0 58.333S5.227 70 11.667 70Z"/><path fill="#A259FF" d="M0 35c0-6.44 5.227-11.667 11.667-11.667h11.666v23.334H11.667C5.227 46.667 0 41.44 0 35Z"/><path fill="#F24E1E" d="M0 11.667C0 5.227 5.227 0 11.667 0h11.666v23.333H11.667C5.227 23.333 0 18.107 0 11.667Z"/><path fill="#FF7262" d="M23.333 0H35c6.44 0 11.667 5.227 11.667 11.667 0 6.44-5.227 11.666-11.667 11.666H23.333V0Z"/><path fill="#1ABCFE" d="M46.667 35c0 6.44-5.227 11.667-11.667 11.667-6.44 0-11.667-5.227-11.667-11.667 0-6.44 5.227-11.667 11.667-11.667 6.44 0 11.667 5.227 11.667 11.667Z"/></svg>