<svg xmlns="http://www.w3.org/2000/svg" width="70" height="80" fill="none"><path fill="#FB8028" d="M2.734 1.574c-.698 0-1.217.568-1.155 1.263L7.457 68.77c.062.694.662 1.415 1.334 1.602l24.945 6.925c.671.187 1.77.187 2.443 0l25.02-6.936c.672-.187 1.273-.908 1.334-1.602l5.888-65.923a1.141 1.141 0 0 0-1.155-1.263H2.734Zm21.013 43.58c.698 0 1.318.57 1.38 1.263l.373 4.174c.062.694.663 1.41 1.337 1.593l6.901 1.864 1.23.33 1.229-.33 6.914-1.869c.673-.182 1.274-.899 1.337-1.593l.75-8.36a1.14 1.14 0 0 0-1.155-1.264H17.481A1.416 1.416 0 0 1 16.1 39.7l-2.053-23.004c-.056-.62.47-1.126 1.167-1.126h39.52c.698 0 1.223.506 1.168 1.126l-.666 7.27H24.39c-.698 0-1.217.567-1.155 1.262l.543 6.073a1.416 1.416 0 0 0 1.38 1.263h28.198c.62 0 1.083.507 1.027 1.126l-2.137 23.942c-.035.39-.613.861-1.285 1.047l-14.74 4.087c-.671.187-1.23.34-1.24.343-.01.002-.568-.149-1.24-.335L18.986 58.68c-.672-.187-1.273-.908-1.335-1.602l-.95-10.66a1.142 1.142 0 0 1 1.156-1.263h5.89Z"/><path fill="#C63F00" d="M34.958 79.013c-.584 0-1.168-.066-1.644-.198L8.37 71.889c-1.295-.36-2.361-1.64-2.48-2.98L.01 2.977a2.746 2.746 0 0 1 .7-2.094A2.745 2.745 0 0 1 2.734 0h64.532c.774 0 1.512.322 2.024.883.513.561.768 1.325.699 2.095L64.1 68.9c-.12 1.339-1.186 2.62-2.482 2.978L36.6 78.816c-.475.131-1.059.197-1.641.197ZM3.187 3.148 9.025 68.63c.016.06.13.198.202.23l24.93 6.92c.396.111 1.204.111 1.602.001l25.02-6.937a.53.53 0 0 0 .188-.236l5.846-65.461H3.187Zm31.818 61.544c-.238 0-.58-.095-1.685-.402l-14.755-4.094c-1.295-.359-2.362-1.64-2.482-2.978l-.95-10.66a2.745 2.745 0 0 1 .7-2.095 2.745 2.745 0 0 1 2.024-.882h5.89a2.98 2.98 0 0 1 2.948 2.696l.372 4.162c.02.072.123.195.19.228l6.891 1.86.819.221.819-.22 6.903-1.866a.498.498 0 0 0 .192-.229l.708-7.897H17.48a2.98 2.98 0 0 1-2.948-2.697L12.48 16.835a2.529 2.529 0 0 1 .662-1.95 2.806 2.806 0 0 1 2.073-.89h39.521c.8 0 1.555.324 2.072.89.492.536.727 1.229.663 1.95l-.666 7.273a1.574 1.574 0 0 1-1.568 1.43H24.843l.488 5.452h28.025c.737 0 1.44.307 1.93.843.489.536.731 1.264.665 2l-2.138 23.939c-.11 1.239-1.3 2.11-2.431 2.424l-14.74 4.087c-1.259.349-1.272.351-1.322.363-.123.027-.21.046-.315.046Zm-15.588-7.526 14.744 4.09c.338.094.611.17.81.223l.83-.23 14.74-4.087a.965.965 0 0 0 .172-.066l2.05-22.958H25.159a2.98 2.98 0 0 1-2.949-2.697l-.543-6.073a2.746 2.746 0 0 1 .7-2.095 2.744 2.744 0 0 1 2.023-.882H53.8l.481-5.248H15.668l1.985 22.245h26.39c.773 0 1.511.322 2.024.883.513.56.767 1.324.698 2.094l-.75 8.36c-.12 1.344-1.192 2.621-2.494 2.973l-6.914 1.868c-1.427.386-1.427.386-1.64.386-.213 0-.213 0-1.639-.385l-6.902-1.864c-1.302-.352-2.374-1.63-2.493-2.973l-.357-4.002H18.31l.908 10.199a.51.51 0 0 0 .199.239Z"/><path fill="#C63F00" d="M24.927 8.5H7.456a1.574 1.574 0 0 1 0-3.148h17.47a1.574 1.574 0 0 1 0 3.148ZM31.38 8.5h-.63a1.574 1.574 0 0 1 0-3.148h.63a1.574 1.574 0 0 1 0 3.148Z"/></svg>