<svg xmlns="http://www.w3.org/2000/svg" width="70" height="68" fill="none"><path fill="#6EB43F" fill-rule="evenodd" d="M69.837 60.158c-1.204-1.02-2.394-2.056-3.588-3.086-2.07-1.784-4.136-3.571-6.215-5.343-.305-.25-.288-.447-.078-.762a31.918 31.918 0 0 0 5.373-21.865 31.876 31.876 0 0 0-12.02-21.84A32.428 32.428 0 0 0 32.684 0c-.358.018-.883.045-1.41.065a31.157 31.157 0 0 0-8.974 1.68 31.859 31.859 0 0 0-15.412 11.02 31.876 31.876 0 0 0-5.748 28.24 31.576 31.576 0 0 0 11.88 17.756 32.711 32.711 0 0 0 31.007 4.684 32.17 32.17 0 0 0 8.17-4.394c.227-.17.397-.315.697-.06 1.884 1.607 3.788 3.192 5.685 4.784l4.673 3.933c.208.175.378.35.653.018a781.67 781.67 0 0 1 5.97-7.083c.175-.197.17-.31-.038-.485Zm-37.034-7.334a20.105 20.105 0 1 1 20.13-20.098 20.118 20.118 0 0 1-20.13 20.098Z" clip-rule="evenodd"/><path fill="#5F6062" fill-rule="evenodd" d="M32.779 39.629a12.899 12.899 0 1 1 12.925-12.923 12.914 12.914 0 0 1-12.925 12.923Z" clip-rule="evenodd"/></svg>