<svg xmlns="http://www.w3.org/2000/svg" width="70" height="70" fill="none"><mask id="a" width="70" height="70" x="0" y="0" maskUnits="userSpaceOnUse" style="mask-type:luminance"><path fill="#fff" d="M70 0H0v70h70V0Z"/></mask><g mask="url(#a)"><path fill="#DE4C36" d="M68.68 31.881 38.117 1.321a4.508 4.508 0 0 0-6.375 0l-6.346 6.346 8.05 8.05a5.351 5.351 0 0 1 6.78 6.825l7.759 7.76a5.362 5.362 0 0 1 5.542 8.858 5.364 5.364 0 0 1-8.755-5.834l-7.236-7.236v19.041a5.364 5.364 0 1 1-4.41-.156V25.757a5.295 5.295 0 0 1-1.757-1.171 5.362 5.362 0 0 1-1.156-5.864l-7.936-7.937L1.321 31.74a4.51 4.51 0 0 0 0 6.377l30.563 30.561a4.508 4.508 0 0 0 6.375 0l30.42-30.42a4.511 4.511 0 0 0 0-6.377Z"/></g></svg>