<svg xmlns="http://www.w3.org/2000/svg" width="70" height="70" fill="none"><mask id="a" width="70" height="70" x="0" y="0" maskUnits="userSpaceOnUse" style="mask-type:luminance"><path fill="#fff" d="M70 0H0v70h70V0Z"/></mask><g mask="url(#a)"><path fill="#F7DF1E" d="M0 0h70v70H0V0Z"/><path fill="#000" d="m18.406 58.497 5.356-3.242c1.034 1.832 1.974 3.383 4.229 3.383 2.161 0 3.524-.846 3.524-4.135V32.137h6.579v22.46c0 6.813-3.994 9.914-9.821 9.914-5.262 0-8.317-2.725-9.867-6.014Zm23.26-.705 5.357-3.101c1.41 2.303 3.242 3.994 6.484 3.994 2.726 0 4.464-1.363 4.464-3.242 0-2.256-1.785-3.055-4.793-4.37l-1.644-.705c-4.746-2.02-7.894-4.558-7.894-9.914 0-4.934 3.759-8.693 9.633-8.693 4.182 0 7.189 1.456 9.35 5.262l-5.122 3.29c-1.128-2.02-2.349-2.82-4.229-2.82-1.926 0-3.148 1.222-3.148 2.82 0 1.973 1.222 2.773 4.04 3.994l1.645.705c5.592 2.396 8.74 4.84 8.74 10.337 0 5.92-4.652 9.163-10.9 9.163-6.11 0-10.056-2.914-11.982-6.72Z"/></g></svg>