<svg xmlns="http://www.w3.org/2000/svg" width="100" height="69" fill="none"><mask id="a" width="100" height="69" x="0" y="0" maskUnits="userSpaceOnUse" style="mask-type:luminance"><path fill="#fff" d="M100 0H0v68.421h100V0Z"/></mask><g mask="url(#a)"><path fill="#00758F" d="m29.75 45.15 3.04 9.897c.682 2.248.967 3.816.853 4.71 1.662-4.468 2.823-9.337 3.483-14.607h3.654c-1.57 8.58-3.643 14.815-6.215 18.705-2.004 2.997-4.2 4.495-6.59 4.495-.638 0-1.424-.193-2.356-.577v-2.068c.456.067.99.103 1.605.103 1.115 0 2.014-.31 2.698-.93.819-.754 1.229-1.602 1.229-2.542 0-.642-.32-1.96-.956-3.952L25.96 45.15h3.79ZM6.496 39.066l5.565 17.047h.035l5.6-17.047h4.575c1.002 8.454 1.593 16.19 1.775 23.201h-3.857c-.136-6.554-.512-12.718-1.127-18.49h-.033l-5.874 18.49h-2.938l-5.838-18.49h-.034c-.433 5.544-.706 11.707-.82 18.49H.007c.227-8.25.796-15.983 1.706-23.201h4.782Z"/><path fill="#F29111" d="M68.845 38.722c5.987 0 8.98 3.84 8.98 11.515 0 4.171-.9 7.322-2.699 9.45a7.93 7.93 0 0 1-1.06 1.037l4.237 2.103h-.004l-1.505 2.608-5.517-3.232c-.914.272-1.92.407-3.017.407-2.94 0-5.136-.86-6.587-2.577-1.594-1.9-2.39-4.893-2.39-8.971 0-4.148.898-7.286 2.698-9.418 1.639-1.95 3.927-2.922 6.864-2.922Zm-18.334.033c2.14 0 4.085.575 5.838 1.72l-.89 1.992c-1.5-.64-2.978-.961-4.436-.961-1.183 0-2.095.286-2.73.86-.64.57-1.034 1.304-1.034 2.199 0 1.374.975 2.566 2.775 3.573.59.324 1.178.65 1.764.982l.135.076.067.038.134.076.068.038.134.076c1.363.772 2.646 1.508 2.646 1.508 1.8 1.283 2.698 2.651 2.698 4.904 0 1.968-.718 3.583-2.15 4.847-1.433 1.258-3.358 1.89-5.769 1.89-2.254 0-4.44-.727-6.556-2.167l.99-1.993c1.822.917 3.47 1.374 4.95 1.374 1.388 0 2.475-.311 3.26-.925.785-.62 1.255-1.483 1.255-2.577 0-1.378-.954-2.555-2.706-3.543a175.62 175.62 0 0 1-1.64-.921l-.133-.076-.738-.42-.132-.076c-1.182-.675-2.205-1.265-2.205-1.265-1.75-1.285-2.628-2.664-2.628-4.937 0-1.88.655-3.399 1.962-4.554 1.31-1.159 3.001-1.738 5.071-1.738Zm34.35.31v20.348h7.272v2.854h-10.96V39.066h3.688Zm11.313 20.357v.483h-.8v2.36h-.61v-2.36h-.831v-.483h2.24Zm1.476 0 .768 1.938.705-1.938h.867v2.843h-.577v-2.163l-.802 2.163h-.416l-.803-2.163h-.031v2.163h-.546v-2.843h.835ZM68.468 41.575c-3.528 0-5.293 2.923-5.293 8.765 0 3.347.468 5.773 1.401 7.286.865 1.4 2.22 2.098 4.064 2.098 3.528 0 5.292-2.946 5.292-8.834 0-3.3-.467-5.706-1.4-7.22-.865-1.396-2.22-2.095-4.064-2.095Z"/><path fill="#00758F" d="M59.22 1.438c1.171-2.887 5.264-.701 6.851.307.39.253.836.786 1.282.983.697.027 1.392.082 2.09.111 1.308.309 2.533.56 3.563 1.15 4.79 2.832 7.909 5.718 10.778 10.485.613 1.01.92 2.102 1.42 3.194.696 1.63 1.477 3.339 2.284 4.879.361.73.64 1.541 1.143 2.158.195.282.752.365 1.084.533.92.478 2.034.841 2.898 1.402 1.615 1.01 3.177 2.215 4.596 3.448.529.476.89 1.15 1.393 1.654v.253c-.447.138-.893.28-1.339.393-.975.251-1.838.194-2.784.446-.584.17-1.31.394-1.922.451l.056.058c.36 1.034 2.311 1.875 3.203 2.493 1.084.785 2.088 1.737 2.896 2.83.279.28.558.534.836.812.194.282.249.646.445.898v.085c-.218-.077-.374-.224-.522-.378l-.089-.093a2.238 2.238 0 0 0-.279-.257c-.615-.422-1.225-.926-1.84-1.318-1.057-.673-2.283-1.064-3.368-1.74-.614-.392-1.198-.839-1.783-1.288-.53-.393-1.115-1.149-1.448-1.71-.196-.31-.223-.673-.447-.897.04-.374.382-.486.726-.577l.08-.02c.118-.032.235-.063.336-.104 1.448-.617 3.175-.84 5.403-.785-.084-.562-1.476-1.262-1.921-1.598-.892-.646-1.837-1.32-2.784-1.908-.502-.308-1.366-.532-1.922-.784-.752-.308-2.424-.617-2.84-1.204-.708-.927-1.217-2.032-1.71-3.148l-.135-.305-.135-.304c-.583-1.345-1.308-2.746-1.893-4.123-.306-.671-.446-1.26-.781-1.905-2.032-3.952-5.04-7.26-8.688-9.587-1.198-.757-2.534-1.458-4.01-1.934-.835-.254-1.839-.113-2.73-.308h-.586c-.5-.142-.918-.674-1.308-.955-.862-.587-1.726-.982-2.757-1.401-.361-.169-1.393-.56-1.753-.252-.223.056-.336.14-.391.365-.222.336-.027.84.111 1.15.418.896 1.003 1.428 1.533 2.185.472.672 1.058 1.429 1.393 2.16.721 1.569 1.057 3.307 1.726 4.877.248.59.64 1.261 1.002 1.793.306.423.862.728 1.03 1.263.336.56-.502 2.41-.696 2.998-.725 2.3-.585 5.495.251 7.488l.044.105.045.107c.305.73.632 1.515 1.442 1.72.056-.056 0-.027.111-.056.196-1.543.252-3.028.781-4.235.306-.755.918-1.288 1.336-1.904.28.168.28.674.446 1.009.362.868.752 1.82 1.198 2.691.917 1.794 1.95 3.533 3.118 5.103.392.56.948 1.177 1.449 1.682.223.196.473.308.64.56h.055v.084c-.835-.309-1.365-1.176-2.031-1.683-1.255-.952-2.757-2.382-3.622-3.754-.361-.788-.752-1.543-1.142-2.327v-.056c-.167.223-.11.446-.194.784-.362 1.401-.083 3-1.336 3.503-1.42.59-2.48-.952-2.925-1.653-1.421-2.326-1.81-6.25-.808-9.419.222-.7.253-1.542.641-2.102-.084-.506-.473-.645-.697-.955-.39-.53-.724-1.147-1.029-1.736-.586-1.15-1.003-2.524-1.448-3.758-.196-.503-.252-1.009-.447-1.486-.333-.727-.946-1.457-1.42-2.101-.64-.926-2.507-2.72-1.754-4.542Zm9.135 5.492c.074.075.164.14.257.205l.112.077c.15.104.294.213.383.362.14.198.166.392.335.59 0 .674-.195 1.122-.587 1.4 0 0-.027.03-.055.058-.222-.45-.417-.896-.641-1.345-.277-.392-.667-.702-.892-1.15h-.054v-.056c.336-.084.67-.141 1.142-.141Z"/></g></svg>