<svg xmlns="http://www.w3.org/2000/svg" width="70" height="70" fill="none"><mask id="a" width="70" height="70" x="0" y="0" maskUnits="userSpaceOnUse" style="mask-type:luminance"><path fill="#fff" d="M70 0H0v70h70V0Z"/></mask><g fill="#8CC03E" mask="url(#a)"><path d="M27.457 61.329c-1.796 1.041-2.137 1.163-3.826 1.761-.409.14-1.027.388.233 1.112l8.458 5.069a5.284 5.284 0 0 0 2.66.723l.006.006c.93 0 1.85-.25 2.657-.723l25.323-14.808a5.45 5.45 0 0 0 2.66-4.681V20.189c0-1.93-1.012-3.724-2.66-4.681L37.645.685c-1.59-.915-3.716-.915-5.32 0L7.032 15.493c-1.642.96-2.657 2.765-2.657 4.681v29.599c0 1.93 1.012 3.724 2.657 4.681l6.636 3.877c3.208 1.612 4.357 1.612 5.824 1.612 4.757 0 7.499-2.916 7.499-8V22.706a.739.739 0 0 0-.741-.735h-3.208a.73.73 0 0 0-.741.735v29.222c0 2.264-2.304 4.5-6.076 2.599L9.29 50.47a.775.775 0 0 1-.394-.682V20.189c0-.288.151-.569.396-.709L34.587 4.672a.78.78 0 0 1 .782 0l25.307 14.794a.832.832 0 0 1 .397.708v29.614a.828.828 0 0 1-.382.694L35.368 65.29a.78.78 0 0 1-.782 0l-6.498-3.903c-.193-.125-.438-.169-.63-.058Z"/><path d="M42.8 45.118c-6.703 0-8.173-1.71-8.663-5.084a.727.727 0 0 0-.727-.624h-3.275a.726.726 0 0 0-.726.735c0 4.32 2.316 9.473 13.405 9.473 8.003-.014 12.614-3.22 12.614-8.805l-.008.003c0-5.542-3.702-7.015-11.474-8.056-7.87-1.056-8.663-1.598-8.663-3.46 0-1.54.674-3.596 6.498-3.596 5.198 0 7.117 1.138 7.91 4.694.067.335.37.583.715.583h3.29a.705.705 0 0 0 .534-.237.79.79 0 0 0 .192-.568c-.508-6.125-4.524-8.972-12.64-8.972-7.225 0-11.53 3.086-11.53 8.263 0 5.612 4.29 7.17 11.214 7.86 8.295.823 8.937 2.057 8.937 3.71.006 2.862-2.27 4.081-7.604 4.081Z"/></g></svg>