<svg xmlns="http://www.w3.org/2000/svg" width="70" height="70" fill="none"><path fill="#00D8FF" d="M35 40.412a5.469 5.469 0 1 0 0-10.938 5.469 5.469 0 0 0 0 10.938Z"/><path fill="#00D8FF" d="M35 47.482a62.096 62.096 0 0 1-19.425-2.625 24.72 24.72 0 0 1-8-4.283 7.75 7.75 0 0 1-3.2-5.63c0-3.617 3.973-7.16 10.627-9.48A62.908 62.908 0 0 1 35 22.517a62.731 62.731 0 0 1 19.736 2.896c2.8.893 5.42 2.275 7.739 4.082a7.417 7.417 0 0 1 3.15 5.45c0 3.757-4.44 7.566-11.594 9.932A63.002 63.002 0 0 1 35 47.483Zm0-22.35a61.138 61.138 0 0 0-19.138 2.804c-6.125 2.138-8.87 5.06-8.87 7 0 2.03 2.95 5.222 9.43 7.438A59.519 59.519 0 0 0 35 44.866c6.16.11 12.302-.724 18.21-2.472 6.727-2.23 9.79-5.425 9.79-7.45a5.092 5.092 0 0 0-2.21-3.442 22.303 22.303 0 0 0-6.914-3.618A60.076 60.076 0 0 0 35 25.132Z"/><path fill="#00D8FF" d="M22.575 62.219a5.771 5.771 0 0 1-2.922-.718c-3.133-1.806-4.218-7.017-2.903-13.94a62.904 62.904 0 0 1 7.437-18.798 62.725 62.725 0 0 1 12.366-15.649 24.886 24.886 0 0 1 7.403-4.666 7.418 7.418 0 0 1 6.295 0c3.258 1.877 4.336 7.626 2.816 15.004a63.017 63.017 0 0 1-7.254 17.791A62.093 62.093 0 0 1 33.834 56.76a24.72 24.72 0 0 1-7.707 4.788c-1.137.423-2.338.65-3.552.672Zm3.878-32.156a61.137 61.137 0 0 0-7.13 17.979c-1.21 6.376-.049 10.211 1.64 11.187 1.75 1.013 5.998.052 11.156-4.454a59.523 59.523 0 0 0 11.434-14.853 60.379 60.379 0 0 0 6.959-17.01c1.43-6.945.194-11.198-1.56-12.209a5.092 5.092 0 0 0-4.086.195 22.3 22.3 0 0 0-6.585 4.196A60.077 60.077 0 0 0 26.47 30.076l-.016-.013Z"/><path fill="#00D8FF" d="M47.419 62.248c-2.965 0-6.73-1.794-10.65-5.165A62.905 62.905 0 0 1 24.2 41.252a62.728 62.728 0 0 1-7.382-18.53 24.886 24.886 0 0 1-.345-8.75 7.417 7.417 0 0 1 3.137-5.44c3.253-1.884 8.772.052 14.404 5.052a63 63 0 0 1 11.791 15.169 62.088 62.088 0 0 1 7.46 18.127c.658 2.98.76 6.054.3 9.07a7.748 7.748 0 0 1-3.269 5.589 5.665 5.665 0 0 1-2.877.709ZM26.462 39.934a61.138 61.138 0 0 0 12.014 15.157c4.92 4.233 8.822 5.143 10.5 4.157 1.75-1.018 3.04-5.17 1.71-11.887a59.532 59.532 0 0 0-7.155-17.306 60.377 60.377 0 0 0-11.254-14.525c-5.303-4.707-9.604-5.76-11.356-4.744a5.087 5.087 0 0 0-1.87 3.635 22.299 22.299 0 0 0 .335 7.799 60.081 60.081 0 0 0 7.078 17.718l-.002-.004Z"/></svg>